<?xml version="1.0" standalone="no"?>
<!DOCTYPE svg PUBLIC "-//W3C//DTD SVG 20010904//EN"
 "http://www.w3.org/TR/2001/REC-SVG-20010904/DTD/svg10.dtd">
<svg version="1.0" xmlns="http://www.w3.org/2000/svg"
 width="1080.000000pt" height="1080.000000pt" viewBox="0 0 1080.000000 1080.000000"
 preserveAspectRatio="xMidYMid meet">
<metadata>
Created by potrace 1.14, written by Peter Selinger 2001-2017
</metadata>
<g transform="translate(0.000000,1080.000000) scale(0.100000,-0.100000)"
fill="#000000" stroke="none">
<path d="M4142 9973 c-18 -9 -43 -30 -55 -47 -21 -30 -22 -39 -22 -266 0 -129
4 -298 8 -375 4 -77 9 -551 10 -1053 l3 -912 -37 -30 c-108 -86 -108 -264 0
-351 l37 -29 -1 -178 c0 -97 1 -183 3 -189 3 -9 30 -13 88 -13 66 0 94 -5 136
-24 63 -28 119 -82 150 -145 32 -65 32 -188 0 -248 -35 -66 -78 -110 -140
-140 -177 -87 -386 26 -418 227 l-6 37 -110 0 -109 0 6 -56 c21 -194 147 -355
333 -425 190 -73 389 -29 538 118 114 114 162 238 151 395 -10 138 -55 236
-152 333 -59 59 -142 109 -210 127 l-40 10 2 85 2 85 43 40 c101 92 97 248 -7
340 l-37 32 0 767 c1 422 1 773 1 780 1 13 1 13 44 -23 7 -6 140 -107 295
-225 156 -118 422 -320 590 -448 169 -127 402 -304 517 -391 272 -206 602
-456 639 -484 84 -65 388 -295 664 -504 172 -130 317 -244 321 -253 5 -8 8
-48 8 -89 0 -117 -21 -111 379 -111 l334 0 0 -765 0 -764 -279 -3 c-390 -4
-363 24 -364 -389 0 -287 0 -289 -21 -289 -12 -1 -245 -2 -519 -3 l-499 -2
-24 -28 -24 -28 0 -329 c0 -220 4 -337 11 -353 19 -43 46 -47 294 -47 l235 0
1 -277 c0 -153 1 -506 2 -786 1 -279 0 -508 -3 -508 -3 -1 -398 -2 -878 -3
-721 -1 -870 1 -855 12 120 86 180 135 246 200 276 271 435 605 471 992 10
105 8 1364 -2 1390 -5 14 -18 33 -28 42 -16 14 -116 47 -259 85 -110 30 -189
55 -212 67 -68 35 -103 103 -103 201 0 66 -17 124 -47 157 -9 10 -138 65 -287
124 -149 58 -290 115 -313 125 -24 10 -45 19 -47 19 -5 0 -189 72 -626 245
-309 122 -316 124 -430 131 -128 8 -193 -7 -427 -100 -322 -127 -560 -220
-728 -286 -88 -34 -173 -68 -190 -75 -16 -7 -112 -45 -213 -84 -101 -39 -194
-78 -207 -87 -40 -26 -64 -90 -64 -173 -1 -126 -51 -190 -175 -225 -28 -8
-125 -35 -216 -60 -90 -26 -172 -54 -182 -63 -10 -9 -23 -32 -29 -52 -11 -38
-8 -1406 3 -1446 3 -11 9 -40 13 -65 22 -144 88 -340 157 -469 127 -236 292
-417 541 -593 16 -11 -63 -13 -450 -13 l-468 0 -3 -338 -2 -337 4470 0 4470 0
0 1519 0 1518 -297 1 c-164 0 -309 1 -323 1 l-25 1 0 293 0 294 -24 35 c-14
19 -39 40 -56 47 -20 7 -124 11 -297 11 l-265 0 1 763 1 762 137 5 c113 4 140
8 155 22 15 16 17 40 18 185 0 93 -1 178 -3 191 -7 38 -48 51 -158 51 -54 0
-111 0 -126 0 l-27 1 1 1265 1 1265 69 -5 c117 -7 178 -60 215 -185 18 -61 22
-223 9 -356 -8 -77 -7 -82 17 -109 24 -29 25 -29 144 -29 101 0 124 3 153 20
37 21 87 89 141 189 17 33 36 66 42 73 6 7 20 32 32 55 12 23 82 146 155 272
74 127 142 247 152 267 35 72 14 165 -47 207 -42 28 32 26 -1215 36 -437 4
-891 7 -1009 8 -258 3 -280 -4 -281 -80 0 -48 108 -248 164 -302 65 -63 92
-67 469 -66 l337 1 1 -906 c1 -874 1 -961 -6 -968 -3 -3 -333 215 -1045 687
-129 86 -243 160 -252 166 -9 5 -41 26 -70 47 -29 20 -228 152 -443 294 -214
142 -581 384 -815 539 -703 466 -1194 791 -1207 799 -27 15 -89 15 -121 -1z
m418 -489 c137 -91 250 -167 250 -169 0 -4 -492 4 -496 8 -3 3 -10 327 -7 327
2 0 115 -75 253 -166z m268 -415 l192 -4 0 -208 c0 -164 -3 -207 -12 -201 -13
8 -162 119 -188 141 -8 7 -92 71 -187 141 -95 71 -170 131 -168 133 2 3 41 4
87 3 46 -1 170 -4 276 -5z m822 -306 c243 -162 328 -223 310 -224 -137 -4
-682 0 -688 5 -4 4 -7 113 -8 242 l-1 234 26 -17 c14 -9 177 -117 361 -240z
m557 -473 c9 0 12 -67 13 -275 0 -151 -2 -275 -4 -275 -2 0 -129 95 -282 211
-154 116 -316 239 -362 273 l-82 61 32 5 c24 4 549 4 685 0z m618 -305 c83
-55 152 -103 153 -107 2 -5 8 -8 13 -8 5 0 93 -56 196 -125 l188 -125 -456 0
-456 0 -1 293 c0 160 2 295 4 299 3 4 51 -23 107 -60 56 -38 170 -113 252
-167z m820 -902 l1 -293 -89 0 -88 0 -212 160 c-289 218 -540 410 -550 419 -5
5 205 8 465 7 l473 -1 0 -292z m416 78 c6 -33 2 -364 -4 -368 -5 -3 -44 -6
-86 -6 l-76 0 -3 247 -2 246 85 -56 c47 -31 86 -60 86 -63z"/>
</g>
</svg>
